<?xml version="1.0" encoding="UTF-8"?>
<svg version="1.1" id="Bici" focusable="false" xmlns="http://www.w3.org/2000/svg" xmlns:xlink="http://www.w3.org/1999/xlink" x="0px" y="0px" viewBox="0 32 336 215" style="enable-background:new 0 32 336 215;" xml:space="preserve">
<style type="text/css">
	.st0{fill:#8fdf82;}
</style>
<path class="st0" d="M269.9,106.4c-9.3-0.1-18.1,1.6-26.2,4.8l-41.6-67.1c-1.9-3.1-5.3-5-8.9-5h-35.7c-3.5,0-6.3,2.8-6.3,6.3v8.4  c0,3.5,2.8,6.3,6.3,6.3h29.9l16.9,27.3h-69.9v-8.4c0-3.5-2.8-6.3-6.3-6.3H77.7c-5.8,0-10.5,4.7-10.5,10.5c0,5.8,4.7,10.5,10.5,10.5  h32.1L96.4,113c-8.8-4.3-18.7-6.6-29.2-6.6C30.1,106.4-0.2,137,0,174c0.2,36.9,30.2,66.8,67.2,66.8c30.6,0,56.3-20.4,64.5-48.3h17.4  c3.4,0,6.6-1.7,8.6-4.5l57.8-82.5l10.3,16.5c-14.8,12.3-24.2,30.9-24.1,51.7c0.1,36.2,30.4,66.8,66.6,67.1  c37.6,0.3,68.1-30.2,67.8-67.8C335.7,136.7,306.2,107,269.9,106.4z M67.2,219.8c-25.5,0-46.2-20.7-46.2-46.2s20.7-46.2,46.2-46.2  c5.8,0,11.5,1.1,16.9,3.2L52.3,176c-4.9,7,0.1,16.5,8.6,16.5h48.5C102.1,208.6,85.9,219.8,67.2,219.8z M81.1,171.5l20.3-29  c7,7.7,11.5,17.8,12,29H81.1z M143.6,171.5h-9.3c-0.6-18.3-8.4-34.7-20.8-46.5l11.6-16.5h62.6L143.6,171.5z M266.6,219.8  c-23.9-1.1-43.2-20.6-44-44.5c-0.5-13.8,5.1-26.3,14.3-35.1l25.1,40.5c1.8,3,5.7,3.9,8.7,2l7.1-4.4c3-1.8,3.9-5.7,2-8.7l-24.9-40.1  c4.7-1.5,9.8-2.2,15-2.1c24,0.7,43.7,20,44.8,44C316.2,198.6,293.8,221,266.6,219.8L266.6,219.8z"/>
</svg>