<?xml version="1.0" encoding="UTF-8"?>
<svg version="1.1" id="Euro" focusable="false" xmlns="http://www.w3.org/2000/svg" xmlns:xlink="http://www.w3.org/1999/xlink" x="0px" y="0px" viewBox="0 0 336 280" style="enable-background:new 0 0 336 280;" xml:space="preserve">
<style type="text/css">
	.st0{fill:#8fdf82;}
</style>
<path class="st0" d="M250.4,226.3c-0.7-3.6-4.3-5.9-7.9-5.1c-5.8,1.3-15,3-24.8,3c-31,0-55.7-19-66.4-46.7h62.2  c3.1,0,5.7-2.1,6.4-5.1l3.5-15.5c0.9-4.1-2.2-8-6.4-8h-73.4c-0.7-7.8-0.8-15.5,0.1-23.1h80.2c3.1,0,5.8-2.1,6.4-5.2l3.6-16.3  c0.9-4.1-2.2-8-6.4-8h-75.6c11.3-24.6,34.3-41,64.3-41c7.9,0,15.6,1.2,20.7,2.3c3.4,0.7,6.8-1.4,7.7-4.7l6.6-24.3  c1-3.7-1.3-7.4-5.1-8.2c-6.6-1.3-17.3-2.8-28.8-2.8c-53.1,0-96,33-111.9,78.8H87.1c-3.6,0-6.6,2.9-6.6,6.6v16.3  c0,3.6,2.9,6.6,6.6,6.6h11.8c-0.6,7.4-0.6,16-0.1,23.1H87.1c-3.6,0-6.6,2.9-6.6,6.6v15.5c0,3.6,2.9,6.6,6.6,6.6h16.5  c13.7,49.4,56.4,85.1,113.5,85.1c14.4,0,26.6-2.5,33.4-4.3c3.4-0.9,5.5-4.2,4.8-7.6L250.4,226.3z"/>
</svg>